<svg width="85" height="48" viewBox="0 0 85 48" fill="none" xmlns="http://www.w3.org/2000/svg">
<g clip-path="url(#clip0_30_368)">
<path d="M52.5619 4.79298H51.4561V6.69788H52.5794C53.2113 6.69788 53.9837 6.52231 53.9837 5.7147C53.9837 5.02121 53.422 4.80175 52.5707 4.80175M52.4302 1.59766H51.4473V3.31821H52.5268C53.2728 3.31821 53.7028 3.00219 53.7028 2.41405C53.7028 1.8259 53.2728 1.60644 52.4302 1.60644M52.8164 8.32187H49.5165V0H52.8164C54.0978 0 55.6336 0.456474 55.6336 2.14192C55.6336 3.05486 55.0807 3.66935 54.2733 3.94148V3.96781C55.2211 4.1346 55.9671 4.81053 55.9671 5.90783C55.9671 7.71617 54.3874 8.33065 52.8076 8.33065" fill="#1226AA"/>
<path d="M60.1622 5.76738H59.9165C59.074 5.76738 58.1261 5.87272 58.1261 6.56621C58.1261 7.0139 58.5737 7.16313 58.9599 7.16313C59.7322 7.16313 60.1622 6.6891 60.1622 5.9605V5.7586V5.76738ZM56.6429 3.26555C57.3187 2.61595 58.2929 2.28237 59.2407 2.28237C61.1891 2.28237 61.9175 3.24799 61.9175 5.37235V8.32187H60.1622V7.69861H60.1271C59.8375 8.18142 59.1705 8.46233 58.4772 8.46233C57.5556 8.46233 56.3621 8.00585 56.3621 6.62765C56.3621 4.93343 58.407 4.65253 60.1008 4.65253V4.55596C60.1008 3.97659 59.6444 3.71324 59.0476 3.71324C58.4947 3.71324 57.9594 3.98537 57.6083 4.31017L56.6429 3.26555Z" fill="#1226AA"/>
<path d="M66.6919 8.32187V5.12655C66.6919 4.47696 66.5164 3.89759 65.8231 3.89759C65.1297 3.89759 64.7962 4.48574 64.7962 5.15289V8.32187H62.8654V2.46672H64.726V3.27432H64.7523C65.0244 2.7564 65.6914 2.29993 66.4988 2.29993C68.061 2.29993 68.6227 3.52012 68.6227 4.69642V8.31309H66.6919V8.32187Z" fill="#1226AA"/>
<path d="M73.6165 4.36284C73.4058 4.08193 72.9846 3.89759 72.5984 3.89759C71.791 3.89759 71.2556 4.59108 71.2556 5.39868C71.2556 6.20629 71.7822 6.891 72.6247 6.891C73.0109 6.891 73.4322 6.74177 73.6603 6.45209L74.7223 7.76006C74.2396 8.23409 73.4234 8.515 72.5721 8.515C70.7378 8.515 69.3073 7.3387 69.3073 5.39868C69.3073 3.45867 70.7466 2.28237 72.5545 2.28237C73.3883 2.28237 74.2571 2.59839 74.7135 3.07242L73.6077 4.36284H73.6165Z" fill="#1226AA"/>
<path d="M77.952 3.88003C77.048 3.88003 76.5829 4.61741 76.5829 5.37235C76.5829 6.12729 77.0656 6.891 77.9608 6.891C78.856 6.891 79.3387 6.12729 79.3387 5.37235C79.3387 4.61741 78.8472 3.88003 77.952 3.88003ZM77.952 8.50622C76.1967 8.50622 74.7223 7.28603 74.7223 5.37235C74.7223 3.45867 76.1967 2.28237 77.952 2.28237C79.7073 2.28237 81.1905 3.45867 81.1905 5.37235C81.1905 7.28603 79.7161 8.50622 77.952 8.50622Z" fill="#1226AA"/>
<path d="M16.0082 40.4945C11.0758 40.5121 7.34585 36.5618 7.3283 31.3124C7.31075 26.0629 11.0232 22.0951 15.9555 22.0775C20.8615 22.06 24.5652 26.0102 24.5827 31.2597C24.6003 36.5091 20.9142 40.477 16.0082 40.4945ZM16.5435 14.5808C13.5771 14.5896 10.9354 15.4148 8.68864 17.03L7.28442 18.0395L7.24054 2.29993L0 4.47696V47.2802H7.37218V44.594L8.77641 45.5947C11.0319 47.1924 13.6736 48 16.6401 47.9912C25.0479 47.9649 31.8584 40.4506 31.832 31.2421C31.8057 22.0336 24.9425 14.5633 16.5435 14.5896" fill="#1226AA"/>
<path d="M47.1205 27.8361L46.3043 27.5289C42.8728 26.256 41.3457 25.387 41.3457 23.605C41.3457 21.665 43.2502 20.9802 45.0405 20.9802C46.8309 20.9802 49.0777 21.5772 49.0777 24.4126V25.9312H56.3533V24.4126C56.3533 18.2326 51.7018 13.9137 45.0405 13.9137C37.8614 13.9137 34.1139 18.7857 34.1139 23.605C34.1139 30.4696 39.7571 32.4974 44.2945 34.1302L44.7597 34.297C48.2615 35.605 49.9378 36.5004 49.9378 38.0892C49.9378 40.1522 47.6471 40.8895 45.6812 40.8895C43.373 40.8895 40.6085 40.2224 40.6085 37.0271V35.4031H33.324V37.0271C33.324 43.5845 38.2915 47.9912 45.6724 47.9912C52.3513 47.9912 57.2046 43.8303 57.2046 38.0892C57.2046 31.5757 51.6053 29.4952 47.1118 27.8274" fill="#1226AA"/>
<path d="M84.4905 43.7776C84.4905 44.3219 84.0517 44.7608 83.5163 44.7608C82.9809 44.7608 82.5333 44.3219 82.5333 43.7776C82.5333 43.2334 82.9722 42.7944 83.5163 42.7944C84.0604 42.7944 84.4905 43.2334 84.4905 43.7776ZM73.5288 43.0841H81.3836V40.2487H70.1674L75.0383 35.4821C78.9877 31.6372 80.8307 28.1785 80.8307 24.6145C80.8307 19.2948 77.0832 13.9137 69.9216 13.9137C64.568 13.9137 58.8019 17.2758 58.8019 24.6584V25.9312H65.9986V24.6584C65.9986 22.1917 67.3326 20.9451 69.9655 20.9451C71.7208 20.9451 73.599 21.9108 73.599 24.6145C73.599 26.7827 71.4575 29.1529 69.8339 30.7505L62.7074 37.8873C60.2062 40.3892 58.8107 43.7601 58.8107 47.2714H81.4012V44.4711H73.5463C73.1601 44.4711 72.8442 44.1551 72.8442 43.7688C72.8442 43.3826 73.1601 43.0666 73.5463 43.0666" fill="#1226AA"/>
</g>
<defs>
<clipPath id="clip0_30_368">
<rect width="84.4905" height="48" fill="white"/>
</clipPath>
</defs>
</svg>
